<svg xmlns="http://www.w3.org/2000/svg" viewBox="0 0 240 64" role="img" aria-labelledby="title desc">
  <title id="title">Farmaco Scan</title>
  <desc id="desc">Logo verde di Farmaco Scan con simbolo medico e angoli di scansione</desc>
  <rect x="2" y="2" width="60" height="60" rx="17" fill="#17834a"/>
  <path d="M28 15h8v13h13v8H36v13h-8V36H15v-8h13z" fill="#fff"/>
  <path d="M10 23v-7a6 6 0 0 1 6-6h7M41 10h7a6 6 0 0 1 6 6v7M54 41v7a6 6 0 0 1-6 6h-7M23 54h-7a6 6 0 0 1-6-6v-7" fill="none" stroke="#bfe8d0" stroke-width="2.5" stroke-linecap="round"/>
  <text x="76" y="39" fill="#17201b" font-family="Inter,Segoe UI,Arial,sans-serif" font-size="27" font-weight="800" letter-spacing="-.6">Farmaco Scan</text>
</svg>
