<svg xmlns="http://www.w3.org/2000/svg" viewBox="0 0 390 844" role="img" aria-labelledby="title">
  <title id="title">Ricerca di un medicinale in Farmaco Scan</title>
  <rect width="390" height="844" rx="42" fill="#f8fbf9"/>
  <rect width="390" height="48" rx="42" fill="#ffffff"/>
  <text x="26" y="31" font-family="Arial,sans-serif" font-size="14" font-weight="700" fill="#17201b">09:41</text>
  <rect x="158" y="10" width="74" height="22" rx="11" fill="#111813"/>
  <rect y="48" width="390" height="80" fill="#fff"/>
  <text x="28" y="94" font-family="Arial,sans-serif" font-size="25" font-weight="800" fill="#17201b">Ricerca medicinale</text>
  <rect x="24" y="154" width="342" height="58" rx="16" fill="#fff" stroke="#b8d8c5" stroke-width="2"/>
  <circle cx="52" cy="183" r="9" fill="none" stroke="#17834a" stroke-width="3"/>
  <path d="M59 190l8 8" stroke="#17834a" stroke-width="3" stroke-linecap="round"/>
  <text x="82" y="190" font-family="Arial,sans-serif" font-size="16" fill="#17201b">Tachipirina</text>
  <text x="24" y="252" font-family="Arial,sans-serif" font-size="14" font-weight="800" fill="#17834a">RISULTATI TROVATI</text>
  <g transform="translate(24 276)">
    <rect width="342" height="144" rx="22" fill="#fff" stroke="#dce7df"/>
    <rect x="18" y="20" width="72" height="104" rx="12" fill="#eaf7f0"/>
    <rect x="31" y="39" width="46" height="12" rx="5" fill="#17834a"/>
    <rect x="31" y="61" width="38" height="7" rx="3" fill="#9ccdb0"/>
    <rect x="31" y="76" width="42" height="7" rx="3" fill="#9ccdb0"/>
    <text x="110" y="50" font-family="Arial,sans-serif" font-size="17" font-weight="800" fill="#17201b">TACHIPIRINA</text>
    <text x="110" y="77" font-family="Arial,sans-serif" font-size="13" fill="#5d6961">500 mg compresse</text>
    <rect x="110" y="96" width="174" height="30" rx="15" fill="#17834a"/>
    <text x="197" y="116" text-anchor="middle" font-family="Arial,sans-serif" font-size="12" font-weight="700" fill="#fff">Apri il foglietto illustrativo</text>
  </g>
  <g transform="translate(24 440)">
    <rect width="342" height="144" rx="22" fill="#fff" stroke="#dce7df"/>
    <rect x="18" y="20" width="72" height="104" rx="12" fill="#eaf7f0"/>
    <rect x="31" y="39" width="46" height="12" rx="5" fill="#17834a"/>
    <rect x="31" y="61" width="38" height="7" rx="3" fill="#9ccdb0"/>
    <rect x="31" y="76" width="42" height="7" rx="3" fill="#9ccdb0"/>
    <text x="110" y="50" font-family="Arial,sans-serif" font-size="17" font-weight="800" fill="#17201b">TACHIPIRINA</text>
    <text x="110" y="77" font-family="Arial,sans-serif" font-size="13" fill="#5d6961">1000 mg compresse</text>
    <rect x="110" y="96" width="174" height="30" rx="15" fill="#17834a"/>
    <text x="197" y="116" text-anchor="middle" font-family="Arial,sans-serif" font-size="12" font-weight="700" fill="#fff">Apri il foglietto illustrativo</text>
  </g>
  <rect x="24" y="624" width="342" height="112" rx="20" fill="#fff9ec" stroke="#f1d9a7"/>
  <circle cx="52" cy="657" r="16" fill="#ffeab8"/>
  <text x="52" y="663" text-anchor="middle" font-family="Arial,sans-serif" font-size="16" font-weight="800" fill="#7a5e14">i</text>
  <text x="78" y="655" font-family="Arial,sans-serif" font-size="13" font-weight="700" fill="#66572f">Verifica sempre il medicinale</text>
  <text x="78" y="677" font-family="Arial,sans-serif" font-size="12" fill="#66572f">prima di consultare le informazioni.</text>
  <text x="52" y="713" font-family="Arial,sans-serif" font-size="11" fill="#66572f">Le informazioni hanno finalità esclusivamente informative.</text>
</svg>
